<svg width="740" height="180" viewBox="0 0 740 180" fill="none" xmlns="http://www.w3.org/2000/svg">
  <defs>
    <linearGradient id="rtmBlue" x1="34" y1="32" x2="194" y2="148" gradientUnits="userSpaceOnUse">
      <stop stop-color="#1A8FDC"/>
      <stop offset="1" stop-color="#0C4A7C"/>
    </linearGradient>
    <linearGradient id="rtmPanel" x1="0" y1="0" x2="740" y2="180" gradientUnits="userSpaceOnUse">
      <stop stop-color="#FFFFFF"/>
      <stop offset="1" stop-color="#F5F9FF"/>
    </linearGradient>
    <filter id="shadow" x="0" y="0" width="740" height="180" filterUnits="userSpaceOnUse" color-interpolation-filters="sRGB">
      <feDropShadow dx="0" dy="14" stdDeviation="16" flood-color="#08182B" flood-opacity="0.16"/>
    </filter>
  </defs>
  <g filter="url(#shadow)">
    <rect x="18" y="14" width="704" height="144" rx="28" fill="url(#rtmPanel)"/>
    <rect x="19" y="15" width="702" height="142" rx="27" stroke="#D6E4F7" stroke-width="2"/>
  </g>
  <g transform="translate(42 34)">
    <path d="M24 95V42.5L68 16L112 42.5V95H89V55.5L68 43L47 55.5V95H24Z" fill="#0D5D97"/>
    <path d="M69 8L130 45V95H148V35L83 0L69 8Z" fill="#0A3F6D"/>
    <path d="M58 95V59C58 43.536 70.536 31 86 31H128V48H91C82.163 48 75 55.163 75 64V95H58Z" fill="url(#rtmBlue)"/>
    <path d="M88 95V61C88 49.954 96.954 41 108 41H148V58H114C110.686 58 108 60.686 108 64V95H88Z" fill="#1DA7EC"/>
    <path d="M58 95V59C58 43.536 70.536 31 86 31H128V48H91C82.163 48 75 55.163 75 64V95H58Z" stroke="#EAF5FF" stroke-width="2.2"/>
    <path d="M88 95V61C88 49.954 96.954 41 108 41H148V58H114C110.686 58 108 60.686 108 64V95H88Z" stroke="#EAF5FF" stroke-width="2.2"/>
  </g>
  <g fill="#0A3F6D">
    <text x="228" y="86" font-size="44" font-weight="800" font-family="Avenir Next, Montserrat, Poppins, Arial, sans-serif" letter-spacing="-1.1">RT Material</text>
    <text x="228" y="127" font-size="44" font-weight="800" font-family="Avenir Next, Montserrat, Poppins, Arial, sans-serif" letter-spacing="-1.1">de Construção</text>
  </g>
  <rect x="230" y="40" width="96" height="8" rx="4" fill="#1DA7EC" opacity="0.18"/>
</svg>
